# xmcd
#
# Track frame offsets: 
#        182
#        18470
#        43195
#        60225
#        77180
#        90787
#        113187
#        139752
#        158950
#        186057
#
# Disc length: 2893 seconds
#
# Revision: 2
# Processed by: cddbd v1.5.2PL0 Copyright (c) Steve Scherf et al.
# Submitted via: ExactAudioCopyFreeDBPlugin 1.0
#
DISCID=760b4b0a
DTITLE=Stevie Wonder - Stevie Wonder's Journey Through The Secret Life
DTITLE=Of Plants Volume II
DYEAR=1979
DGENRE=Soul, Pop, R&B, Funk, Jazz
TTITLE0=Send One Your Love
TTITLE1=Outside My Window
TTITLE2=Black Orchid
TTITLE3=Ecclesiastes
TTITLE4=Kesse Ye Lolo De Ye
TTITLE5=Come Back As A Flower
TTITLE6=A Seed's A Star And Tree Medley
TTITLE7=The Secret life Of Plants
TTITLE8=Tree
TTITLE9=Finale
EXTD=
EXTT0=
EXTT1=
EXTT2=
EXTT3=
EXTT4=
EXTT5=
EXTT6=
EXTT7=
EXTT8=
EXTT9=
PLAYORDER=
